<mxfile host="app.diagrams.net" modified="2024-06-15T19:54:47.085Z" agent="Mozilla/5.0 (Macintosh; Intel Mac OS X 10_15_7) AppleWebKit/537.36 (KHTML, like Gecko) Chrome/125.0.0.0 Safari/537.36" etag="zfM81uoHbIKfXjwfSwFL" version="24.5.4" type="github">
  <diagram name="Page-1" id="nfvWKdYdl62j0vtwQdW-">
    <mxGraphModel dx="25840" dy="16240" grid="1" gridSize="1" guides="1" tooltips="1" connect="1" arrows="1" fold="1" page="1" pageScale="1" pageWidth="13780" pageHeight="9843" math="0" shadow="0">
      <root>
        <mxCell id="0" />
        <mxCell id="1" parent="0" />
        <mxCell id="OGmH01oE29lnNVB7uta3-1" value="" style="rounded=0;whiteSpace=wrap;html=1;fillColor=none;strokeWidth=0;container=0;deletable=0;cloneable=0;rotatable=0;resizable=0;" vertex="1" parent="1">
          <mxGeometry width="12405.487" height="9838.563" as="geometry" />
        </mxCell>
      </root>
    </mxGraphModel>
  </diagram>
</mxfile>
